<?xml version="1.0" standalone="no"?><!DOCTYPE svg PUBLIC "-//W3C//DTD SVG 1.1//EN" "http://www.w3.org/Graphics/SVG/1.1/DTD/svg11.dtd"><svg t="1779027594701" class="icon" viewBox="0 0 1024 1024" version="1.1" xmlns="http://www.w3.org/2000/svg" p-id="10590" xmlns:xlink="http://www.w3.org/1999/xlink" width="200" height="200"><path d="M34.1248 0c18.8672 0 34.1504 15.2832 34.1504 34.1248l-0.0256 921.6h921.6a34.1248 34.1248 0 0 1 0 68.2752H0V34.1248C0 15.2832 15.2832 0 34.1248 0zM232.192 204.8c18.7136 0 32.2048 9.5744 41.0368 22.6304 4.1728 6.1952 7.0144 12.7744 9.3696 20.3264 3.072 9.8816 5.4272 22.1952 7.552 37.888 0.5632 4.1984 1.1008 8.576 1.6384 13.2096l1.536 14.336 1.8944 20.9664 2.4576 31.9488 6.7328 98.1504 2.2528 29.696 1.4848 18.176 2.304 24.96 1.536 15.232 1.6128 14.1568 1.664 13.184 1.7408 12.2624 1.8176 11.392 1.3824 7.7568 5.1456-9.1136 5.2736-9.856 5.7856-11.1616 6.2976-12.544 27.9296-56.4992 5.0432-9.8048 5.7856-10.7776 3.9424-6.9376 5.1968-8.576 4.1728-6.5024c26.6752-40.8064 55.7824-62.5408 95.9488-42.624l4.8896 2.56c12.6208 6.9888 21.632 15.3344 28.7488 28.6208l2.56 5.2224 2.432 5.7344c1.536 3.9936 3.0208 8.3712 4.4288 13.1584l2.048 7.5008 1.024 3.9936 1.92 8.5248 1.8944 9.2672 1.8432 10.0352 1.8432 10.88 2.7904 17.92 3.84 27.1616 9.3952 70.4256 3.072 20.992 4.8128-17.792 3.4304-13.4144 6.2208-25.6 10.4448-45.2096 22.272-98.9952 5.7088-24.6016 6.9888-28.9024 3.2768-12.9792 4.7104-17.92 3.072-11.0592 4.5312-15.488 3.0208-9.728 4.096-12.544c18.944-56.2688 36.0448-82.2272 75.4944-82.2272 34.0224 0 55.6032 21.376 71.9104 55.296l2.176 4.7104c2.4576 5.4016 4.736 10.9312 6.9376 16.8704l3.3024 9.216 1.6384 4.9152 3.328 10.5472 3.4048 11.6736 3.6352 13.0304 12.9792 48.6656 2.816 10.0096 2.1248 7.1936 2.8672-4.5568 2.8928-4.7872a637.184 637.184 0 0 0 26.88-51.6608l7.3728-15.9488 7.6288-17.1264c2.56-5.888 5.1968-12.032 7.8336-18.3296l8.1152-19.5328 8.32-20.6848 4.2496-10.8032a44.5696 44.5696 0 0 1 58.1888-25.472 45.7472 45.7472 0 0 1 25.088 59.1104l-10.7776 27.136-10.4192 25.4208-10.0864 23.7568-6.5536 14.8992-6.4512 14.1824-6.3232 13.44-6.2464 12.7232c-2.048 4.096-4.096 8.1152-6.144 12.0064l-6.0928 11.264-6.016 10.5984c-30.976 52.8128-59.8528 77.5424-93.2864 77.5424-32.4096 0-50.5344-20.48-64.512-52.3264a240.4096 240.4096 0 0 1-6.2976-15.9744l-3.072-9.0368-1.536-4.864-3.1744-10.5728-3.3536-11.8784-13.056-48.896-4.5824-16.384-1.9456-6.528-3.7632 12.672-2.9696 10.5984-4.6336 17.408-4.9152 19.5328-5.2992 21.9904-9.9072 43.008-24.32 107.7504-6.8096 28.9792-7.2192 28.928-4.48 16.8704-2.2528 7.9872-4.608 15.8208-4.1472 13.4656C619.5712 790.8608 602.2144 819.2 560.5888 819.2c-41.1904 0-60.288-28.7232-73.472-76.6208l-2.3808-9.216-1.8432-7.7312-1.7408-7.9872-1.6896-8.3712-1.6384-8.96-1.6384-9.6512-2.5088-16.2048-3.584-25.6256-7.1936-54.1952-3.584-25.216-2.56-16.0256-1.664-9.088-7.936 15.5392-24.6784 50.048-9.5744 18.944L407.04 640l-5.504 10.1632-5.248 9.216-5.0688 8.3968a301.824 301.824 0 0 1-2.4832 3.9168l-4.9152 7.3728a208.896 208.896 0 0 1-9.9072 13.184l-5.12 6.016c-17.6128 19.84-37.2224 32.0512-61.4656 32.0512-43.1104 0-59.9296-29.2352-72.064-86.528l-2.432-12.2368-2.2528-12.4928-2.0224-12.6208-1.92-13.3632-1.792-14.2336-1.7664-15.1808-2.4832-24.6784-1.6128-17.8688-2.3552-29.1328-8.3968-120.32-2.048-26.496-0.9984-11.8528-0.256 0.384c-3.6608 5.2992-7.4752 11.0848-11.4176 17.3312l-8.1152 13.1072a44.3904 44.3904 0 0 1-61.6192 14.976 45.9264 45.9264 0 0 1-14.7456-62.592C153.9072 242.2784 189.2864 204.8 232.1664 204.8z" fill="#1296db" fill-opacity=".85" p-id="10591"></path></svg>